<svg width="234" height="189" viewBox="0 0 234 189" fill="none" xmlns="http://www.w3.org/2000/svg">
<path d="M53.7013 35.7803C49.2224 36.5115 45.2919 38.0883 41.43 40.6705C33.3634 46.0635 28.0161 54.1529 26.3708 63.4306C25.8224 66.5613 25.8224 72.8912 26.3708 75.8847C27.5362 82.306 30.4612 87.8133 35.2144 92.5664C37.9565 95.3086 40.7216 97.2738 44.2179 98.9877C49.0624 101.341 53.8841 102.324 59.6427 102.095C66.7724 101.798 72.0054 99.9474 77.8554 95.6285C81.8772 92.6578 84.7108 89.2301 87.0645 84.5455C89.8524 79.0154 90.9036 73.7367 90.4466 67.5668C90.2181 64.4361 89.7382 62.0367 89.1897 61.4426C88.3214 60.4828 85.5792 61.3511 84.0253 63.0879C83.0427 64.1619 83.0655 63.7277 83.6597 67.9552C84.5737 74.6736 81.3974 83.0144 75.8216 88.476C71.4798 92.7035 66.4753 94.7601 59.894 95.0115C51.7817 95.3314 45.9774 93.1377 40.196 87.6076C36.3112 83.8599 34.3003 80.3408 33.112 75.0849C32.5864 72.8226 32.7007 65.9672 33.2948 63.4078C35.0087 56.0496 39.7161 49.7654 46.5259 45.7435C54.364 41.1275 64.9214 41.6074 72.4167 46.9547C73.2622 47.5488 74.1534 48.0058 74.4733 48.0058C74.9075 48.0058 75.7073 47.3888 77.3298 45.8806C80.0948 43.2756 80.1177 43.1385 77.8097 41.5388C74.3134 39.1166 68.5548 36.7629 64.2815 36.0088C61.4022 35.4832 56.1007 35.3689 53.7013 35.7803Z" fill="white"/>
<path d="M77.3526 51.7764C76.2557 52.1648 77.1697 51.2051 58.2715 71.6572C57.3346 72.6627 56.4662 73.5082 56.3291 73.5311C56.2149 73.5539 54.661 71.9314 52.9014 69.8977C51.1418 67.8867 49.3365 65.99 48.9024 65.693C46.96 64.3904 44.4235 64.916 43.3037 66.8355C42.6639 67.9096 42.5496 69.4863 43.0295 70.3318C43.1895 70.6061 45.5432 73.3482 48.2625 76.4104C53.6783 82.5117 54.2496 82.9688 56.352 82.9688C57.1518 82.9688 57.7002 82.8316 58.2029 82.4432C58.5914 82.1689 61.2651 79.4268 64.1444 76.3418C67.0008 73.2568 72.211 67.841 75.7072 64.2762C79.4321 60.4828 82.2199 57.4664 82.4028 57.0322C83.6824 53.9701 80.5061 50.6795 77.3526 51.7764Z" fill="white"/>
<path d="M156.533 68.5723V79.084H158.019H159.504V74.6965C159.504 70.6975 159.55 70.2176 159.984 69.3264C160.304 68.6637 160.578 68.3666 160.784 68.4352C160.966 68.5037 161.081 68.4352 161.035 68.298C161.012 68.1609 161.378 67.8867 161.835 67.7039C162.954 67.2697 164.188 67.5211 165.034 68.3438L165.674 68.9836V74.0338V79.084H167.296H168.919L168.827 73.8738C168.736 68.1381 168.622 67.5668 167.205 66.0814C166.245 65.076 165.194 64.6418 163.617 64.6646C162.063 64.6646 161.401 64.8932 160.327 65.8301L159.504 66.5613V62.3109V58.0605H158.019H156.533V68.5723Z" fill="white"/>
<path d="M200.865 68.5723V79.084H202.465H204.064V76.7303V74.3766L204.819 73.6453L205.573 72.9141L207.721 75.999L209.869 79.084H211.674C213.045 79.084 213.411 79.0154 213.296 78.7869C213.205 78.6498 211.903 76.776 210.394 74.6736L207.675 70.8117L210.257 68.1609C211.697 66.6984 212.931 65.4416 213.045 65.4187C213.137 65.373 213.205 65.2359 213.205 65.1217C213.205 65.0074 212.337 64.916 211.286 64.916H209.366L206.647 67.7725L203.95 70.6289L204.019 64.3447L204.087 58.0605H202.465H200.865V68.5723Z" fill="white"/>
<path d="M144.422 58.769C139.852 59.546 136.881 63.545 136.881 68.9151C136.881 74.6509 139.989 78.627 145.039 79.3354C147.713 79.7239 150.706 78.8555 152.58 77.1874C153.425 76.4104 154.454 74.8565 154.248 74.6737C154.179 74.628 153.608 74.2852 152.968 73.8968L151.803 73.1884L151.095 74.171C149.061 77.0503 143.919 77.1645 141.794 74.3766C139.349 71.1774 139.737 65.0761 142.502 62.9737C144.102 61.7397 146.753 61.3512 148.489 62.0825C149.472 62.4938 150.775 63.6593 151.072 64.4134L151.277 64.9161L152.648 64.2305C153.403 63.8421 154.02 63.4079 154.02 63.2251C154.02 62.7223 152.534 60.9399 151.574 60.2772C149.609 58.929 146.89 58.3577 144.422 58.769Z" fill="white"/>
<path d="M99.4043 69.0521V79.1296L104.272 79.0382L109.116 78.9697L110.602 78.2613C115.149 76.0904 117.046 70.9259 115.4 65.1445C115.012 63.7734 113.732 61.8996 112.498 60.8712C110.533 59.2945 109.116 58.9746 103.838 58.9746H99.4043V69.0521ZM109.116 62.2652C111.721 63.3621 113.184 66.7441 112.658 70.4689C112.27 73.1425 111.287 74.6736 109.345 75.5648C108.339 76.0447 107.859 76.1132 105.414 76.1132H102.604V68.8921V61.6482L105.414 61.7624C107.311 61.8539 108.499 62.0138 109.116 62.2652Z" fill="white"/>
<path d="M124.884 64.6646C123.947 64.8932 123.17 65.3273 122.439 66.0129L121.799 66.607V65.7615V64.916H120.199H118.6V72V79.084H120.176H121.776L121.845 74.5365C121.913 70.3547 121.959 69.9205 122.393 69.3264C123.056 68.4123 124.655 67.6582 125.958 67.6582H127.055V66.0586V64.459L126.323 64.4818C125.912 64.5047 125.272 64.5732 124.884 64.6646Z" fill="white"/>
<path d="M176.848 64.6874C173.284 65.3044 170.884 68.7093 171.227 72.754C171.478 75.6562 172.849 77.5986 175.5 78.8097C177.9 79.9294 181.693 79.4495 183.681 77.7814L184.435 77.1415L183.43 76.1589L182.424 75.1763L181.556 75.7476C180.527 76.456 179.545 76.6617 177.9 76.5245C176.094 76.3646 174.837 75.3134 174.266 73.4167L174.106 72.914H179.179H184.252L184.138 71.0173C184.047 69.6005 183.887 68.8693 183.43 67.9781C182.127 65.4187 179.705 64.2076 176.848 64.6874ZM179.819 67.7495C180.39 68.0466 181.442 69.6005 181.442 70.149C181.442 70.3318 180.345 70.4003 177.9 70.4003C173.969 70.4003 173.946 70.3775 174.883 69.0064C175.592 67.9095 177.191 67.1326 178.334 67.3154C178.814 67.3839 179.476 67.5896 179.819 67.7495Z" fill="white"/>
<path d="M191.793 64.6875C189.394 65.1674 187.406 66.9269 186.583 69.2806C186.103 70.6289 186.103 73.5082 186.583 74.9707C187.086 76.5017 188.663 78.1927 190.171 78.8783C192.616 79.9523 195.884 79.4267 198.009 77.6443L198.694 77.0502L197.575 75.9076L196.455 74.765L195.678 75.4277C194.604 76.3875 193.439 76.6845 192.182 76.3418C190.171 75.7933 189.028 73.8509 189.28 71.3601C189.508 69.0978 190.925 67.6582 192.913 67.6582C194.284 67.6582 194.901 67.9095 195.792 68.7779C196.181 69.1664 196.569 69.4863 196.683 69.4863C196.798 69.4863 197.323 69.0521 197.849 68.5037L198.809 67.5211L197.94 66.6527C196.432 65.0759 193.896 64.2761 191.793 64.6875Z" fill="white"/>
<path d="M126.94 75.7705C126.072 76.616 126.141 77.9414 127.078 78.7183C128.014 79.5181 128.974 79.4953 129.82 78.6498C130.551 77.8957 130.665 77.1187 130.14 76.1361C129.774 75.382 129.386 75.1992 128.289 75.1992C127.74 75.1992 127.306 75.382 126.94 75.7705Z" fill="white"/>
</svg>
