<svg width="189" height="68" viewBox="0 0 189 68" fill="none" xmlns="http://www.w3.org/2000/svg">
<path d="M28.7013 0.78025C24.2224 1.5115 20.2919 3.08826 16.43 5.67048C8.36338 11.0635 3.01611 19.1529 1.3708 28.4306C0.822363 31.5613 0.822363 37.8912 1.3708 40.8847C2.53623 47.306 5.46123 52.8133 10.2144 57.5664C12.9565 60.3086 15.7216 62.2738 19.2179 63.9877C24.0624 66.3414 28.8841 67.324 34.6427 67.0955C41.7724 66.7984 47.0054 64.9474 52.8554 60.6285C56.8772 57.6578 59.7108 54.2301 62.0645 49.5455C64.8524 44.0154 65.9036 38.7367 65.4466 32.5668C65.2181 29.4361 64.7382 27.0367 64.1897 26.4426C63.3214 25.4828 60.5792 26.3511 59.0253 28.0879C58.0427 29.1619 58.0655 28.7277 58.6597 32.9552C59.5737 39.6736 56.3974 48.0144 50.8216 53.4759C46.4798 57.7035 41.4753 59.7601 34.894 60.0115C26.7817 60.3314 20.9774 58.1377 15.196 52.6076C11.3112 48.8599 9.30029 45.3408 8.11201 40.0849C7.58643 37.8226 7.70068 30.9672 8.29482 28.4078C10.0087 21.0496 14.7161 14.7654 21.5259 10.7435C29.364 6.12752 39.9214 6.6074 47.4167 11.9547C48.2622 12.5488 49.1534 13.0058 49.4733 13.0058C49.9075 13.0058 50.7073 12.3888 52.3298 10.8806C55.0948 8.27556 55.1177 8.13845 52.8097 6.53884C49.3134 4.11658 43.5548 1.76287 39.2815 1.00877C36.4022 0.48318 31.1007 0.368922 28.7013 0.78025Z" fill="white"/>
<path d="M52.3526 16.7764C51.2557 17.1648 52.1697 16.2051 33.2715 36.6572C32.3346 37.6627 31.4662 38.5082 31.3291 38.5311C31.2149 38.5539 29.661 36.9314 27.9014 34.8977C26.1418 32.8867 24.3365 30.99 23.9024 30.693C21.96 29.3904 19.4235 29.916 18.3037 31.8355C17.6639 32.9096 17.5496 34.4863 18.0295 35.3318C18.1895 35.6061 20.5432 38.3482 23.2625 41.4104C28.6783 47.5117 29.2496 47.9688 31.352 47.9688C32.1518 47.9688 32.7002 47.8316 33.2029 47.4432C33.5914 47.1689 36.2651 44.4268 39.1444 41.3418C42.0008 38.2568 47.211 32.841 50.7072 29.2762C54.4321 25.4828 57.2199 22.4664 57.4028 22.0322C58.6824 18.9701 55.5061 15.6795 52.3526 16.7764Z" fill="white"/>
<path d="M131.533 33.5723V44.084H133.019H134.504V39.6965C134.504 35.6975 134.55 35.2176 134.984 34.3264C135.304 33.6637 135.578 33.3666 135.784 33.4352C135.966 33.5037 136.081 33.4352 136.035 33.298C136.012 33.1609 136.378 32.8867 136.835 32.7039C137.954 32.2697 139.188 32.5211 140.034 33.3438L140.674 33.9836V39.0338V44.084H142.296H143.919L143.827 38.8738C143.736 33.1381 143.622 32.5668 142.205 31.0814C141.245 30.076 140.194 29.6418 138.617 29.6646C137.063 29.6646 136.401 29.8932 135.327 30.8301L134.504 31.5613V27.3109V23.0605H133.019H131.533V33.5723Z" fill="white"/>
<path d="M175.865 33.5723V44.084H177.465H179.064V41.7303V39.3766L179.819 38.6453L180.573 37.9141L182.721 40.999L184.869 44.084H186.674C188.045 44.084 188.411 44.0154 188.296 43.7869C188.205 43.6498 186.903 41.776 185.394 39.6736L182.675 35.8117L185.257 33.1609C186.697 31.6984 187.931 30.4416 188.045 30.4188C188.137 30.373 188.205 30.2359 188.205 30.1217C188.205 30.0074 187.337 29.916 186.286 29.916H184.366L181.647 32.7725L178.95 35.6289L179.019 29.3447L179.087 23.0605H177.465H175.865V33.5723Z" fill="white"/>
<path d="M119.422 23.769C114.852 24.546 111.881 28.545 111.881 33.9151C111.881 39.6509 114.989 43.627 120.039 44.3354C122.713 44.7239 125.706 43.8555 127.58 42.1874C128.425 41.4104 129.454 39.8565 129.248 39.6737C129.179 39.628 128.608 39.2852 127.968 38.8968L126.803 38.1884L126.095 39.171C124.061 42.0503 118.919 42.1645 116.794 39.3766C114.349 36.1774 114.737 30.0761 117.502 27.9737C119.102 26.7397 121.753 26.3512 123.489 27.0825C124.472 27.4938 125.775 28.6593 126.072 29.4134L126.277 29.9161L127.648 29.2305C128.403 28.8421 129.02 28.4079 129.02 28.2251C129.02 27.7223 127.534 25.9399 126.574 25.2772C124.609 23.929 121.89 23.3577 119.422 23.769Z" fill="white"/>
<path d="M74.4043 34.0521V44.1296L79.2717 44.0382L84.1162 43.9697L85.6016 43.2613C90.149 41.0904 92.0457 35.9259 90.4004 30.1445C90.0119 28.7734 88.7322 26.8996 87.4982 25.8712C85.533 24.2945 84.1162 23.9746 78.8375 23.9746H74.4043V34.0521ZM84.1162 27.2652C86.7213 28.3621 88.1838 31.7441 87.6582 35.4689C87.2697 38.1425 86.2871 39.6736 84.3447 40.5648C83.3393 41.0447 82.8594 41.1132 80.4143 41.1132H77.6035V33.8921V26.6482L80.4143 26.7625C82.3109 26.8539 83.4992 27.0138 84.1162 27.2652Z" fill="white"/>
<path d="M99.8838 29.6646C98.9469 29.8932 98.1699 30.3273 97.4387 31.0129L96.7988 31.607V30.7615V29.916H95.1992H93.5996V37V44.084H95.1764H96.776L96.8445 39.5365C96.9131 35.3547 96.9588 34.9205 97.393 34.3264C98.0557 33.4123 99.6553 32.6582 100.958 32.6582H102.055V31.0586V29.459L101.323 29.4818C100.912 29.5047 100.272 29.5732 99.8838 29.6646Z" fill="white"/>
<path d="M151.848 29.6874C148.284 30.3044 145.884 33.7093 146.227 37.754C146.478 40.6562 147.849 42.5986 150.5 43.8097C152.9 44.9294 156.693 44.4495 158.681 42.7814L159.435 42.1415L158.43 41.1589L157.424 40.1763L156.556 40.7476C155.527 41.456 154.545 41.6617 152.9 41.5245C151.094 41.3646 149.837 40.3134 149.266 38.4167L149.106 37.914H154.179H159.252L159.138 36.0173C159.047 34.6005 158.887 33.8693 158.43 32.9781C157.127 30.4187 154.705 29.2076 151.848 29.6874ZM154.819 32.7495C155.39 33.0466 156.442 34.6005 156.442 35.149C156.442 35.3318 155.345 35.4003 152.9 35.4003C148.969 35.4003 148.946 35.3775 149.883 34.0064C150.592 32.9095 152.191 32.1326 153.334 32.3154C153.814 32.3839 154.476 32.5896 154.819 32.7495Z" fill="white"/>
<path d="M166.793 29.6875C164.394 30.1674 162.406 31.9269 161.583 34.2806C161.103 35.6289 161.103 38.5082 161.583 39.9707C162.086 41.5017 163.663 43.1927 165.171 43.8783C167.616 44.9523 170.884 44.4267 173.009 42.6443L173.694 42.0502L172.575 40.9076L171.455 39.765L170.678 40.4277C169.604 41.3875 168.439 41.6845 167.182 41.3418C165.171 40.7933 164.028 38.8509 164.28 36.3601C164.508 34.0978 165.925 32.6582 167.913 32.6582C169.284 32.6582 169.901 32.9095 170.792 33.7779C171.181 34.1664 171.569 34.4863 171.683 34.4863C171.798 34.4863 172.323 34.0521 172.849 33.5037L173.809 32.5211L172.94 31.6527C171.432 30.0759 168.896 29.2761 166.793 29.6875Z" fill="white"/>
<path d="M101.94 40.7705C101.072 41.616 101.141 42.9414 102.078 43.7183C103.014 44.5181 103.974 44.4953 104.82 43.6498C105.551 42.8957 105.665 42.1187 105.14 41.1361C104.774 40.382 104.386 40.1992 103.289 40.1992C102.74 40.1992 102.306 40.382 101.94 40.7705Z" fill="white"/>
</svg>
