<svg width="188" height="67" viewBox="0 0 188 67" fill="none" xmlns="http://www.w3.org/2000/svg">
<path d="M27.7418 0.248756C23.2629 0.980003 19.3324 2.55676 15.4705 5.13899C7.40391 10.532 2.05664 18.6214 0.411328 27.8991C-0.137109 31.0298 -0.137109 37.3597 0.411328 40.3532C1.57676 46.7745 4.50176 52.2818 9.25488 57.0349C11.9971 59.7771 14.7621 61.7423 18.2584 63.4562C23.1029 65.8099 27.9246 66.7925 33.6832 66.564C40.8129 66.2669 46.0459 64.4159 51.8959 60.097C55.9178 57.1263 58.7514 53.6986 61.1051 49.014C63.893 43.4839 64.9441 38.2052 64.4871 32.0353C64.2586 28.9046 63.7787 26.5052 63.2303 25.9111C62.3619 24.9513 59.6197 25.8197 58.0658 27.5564C57.0832 28.6304 57.1061 28.1962 57.7002 32.4238C58.6143 39.1421 55.4379 47.4829 49.8621 52.9445C45.5203 57.172 40.5158 59.2286 33.9346 59.48C25.8223 59.7999 20.018 57.6062 14.2365 52.0761C10.3518 48.3284 8.34082 44.8093 7.15254 39.5534C6.62695 37.2911 6.74121 30.4357 7.33535 27.8763C9.04922 20.5181 13.7566 14.2339 20.5664 10.212C28.4045 5.59602 38.9619 6.0759 46.4572 11.4232C47.3027 12.0173 48.1939 12.4743 48.5139 12.4743C48.948 12.4743 49.7479 11.8573 51.3703 10.3491C54.1353 7.74407 54.1582 7.60696 51.8502 6.00735C48.3539 3.58508 42.5953 1.23138 38.3221 0.477272C35.4428 -0.048317 30.1412 -0.162575 27.7418 0.248756Z" fill="white"/>
<path d="M51.3932 16.2449C50.2963 16.6334 51.2104 15.6736 32.3121 36.1257C31.3752 37.1312 30.5068 37.9767 30.3697 37.9996C30.2555 38.0224 28.7016 36.4 26.942 34.3662C25.1824 32.3552 23.3772 30.4585 22.943 30.1615C21.0006 28.8589 18.4641 29.3845 17.3443 31.3041C16.7045 32.3781 16.5902 33.9548 17.0701 34.8003C17.2301 35.0746 19.5838 37.8167 22.3031 40.8789C27.719 46.9802 28.2902 47.4373 30.3926 47.4373C31.1924 47.4373 31.7408 47.3001 32.2436 46.9117C32.632 46.6375 35.3057 43.8953 38.185 40.8103C41.0414 37.7253 46.2516 32.3095 49.7479 28.7447C53.4727 24.9513 56.2606 21.9349 56.4434 21.5007C57.7231 18.4386 54.5467 15.148 51.3932 16.2449Z" fill="white"/>
<path d="M130.574 33.0408V43.5525H132.059H133.545V39.165C133.545 35.166 133.59 34.6861 134.024 33.7949C134.344 33.1322 134.619 32.8351 134.824 32.9037C135.007 32.9722 135.121 32.9037 135.076 32.7666C135.053 32.6294 135.418 32.3552 135.875 32.1724C136.995 31.7382 138.229 31.9896 139.075 32.8123L139.714 33.4521V38.5023V43.5525H141.337H142.959L142.868 38.3423C142.777 32.6066 142.662 32.0353 141.246 30.55C140.286 29.5445 139.235 29.1103 137.658 29.1332C136.104 29.1332 135.441 29.3617 134.367 30.2986L133.545 31.0298V26.7794V22.5291H132.059H130.574V33.0408Z" fill="white"/>
<path d="M174.906 33.0408V43.5525H176.505H178.105V41.1988V38.8451L178.859 38.1138L179.613 37.3826L181.761 40.4675L183.909 43.5525H185.715C187.086 43.5525 187.451 43.4839 187.337 43.2554C187.246 43.1183 185.943 41.2445 184.435 39.1421L181.716 35.2802L184.298 32.6294C185.737 31.1669 186.971 29.9101 187.086 29.8873C187.177 29.8416 187.246 29.7044 187.246 29.5902C187.246 29.4759 186.377 29.3845 185.326 29.3845H183.407L180.687 32.241L177.991 35.0974L178.059 28.8132L178.128 22.5291H176.505H174.906V33.0408Z" fill="white"/>
<path d="M118.463 23.2375C113.892 24.0145 110.922 28.0135 110.922 33.3836C110.922 39.1194 114.029 43.0955 119.08 43.8039C121.753 44.1924 124.747 43.3241 126.621 41.6559C127.466 40.8789 128.494 39.325 128.289 39.1422C128.22 39.0965 127.649 38.7537 127.009 38.3653L125.844 37.6569L125.135 38.6395C123.101 41.5188 117.96 41.633 115.835 38.8451C113.389 35.6459 113.778 29.5446 116.543 27.4422C118.143 26.2082 120.793 25.8198 122.53 26.551C123.513 26.9623 124.815 28.1278 125.112 28.8819L125.318 29.3846L126.689 28.6991C127.443 28.3106 128.06 27.8764 128.06 27.6936C128.06 27.1908 126.575 25.4084 125.615 24.7457C123.65 23.3975 120.93 22.8262 118.463 23.2375Z" fill="white"/>
<path d="M73.4449 33.5206V43.5981L78.3123 43.5067L83.1569 43.4382L84.6422 42.7298C89.1897 40.5589 91.0864 35.3944 89.441 29.613C89.0526 28.2419 87.7729 26.3681 86.5389 25.3397C84.5737 23.763 83.1569 23.4431 77.8781 23.4431H73.4449V33.5206ZM83.1569 26.7337C85.7619 27.8306 87.2244 31.2126 86.6989 34.9374C86.3104 37.611 85.3278 39.1421 83.3854 40.0333C82.3799 40.5132 81.9 40.5817 79.4549 40.5817H76.6442V33.3606V26.1167L79.4549 26.231C81.3516 26.3224 82.5399 26.4823 83.1569 26.7337Z" fill="white"/>
<path d="M98.9244 29.1332C97.9875 29.3617 97.2106 29.7958 96.4793 30.4814L95.8395 31.0755V30.23V29.3845H94.2399H92.6403V36.4685V43.5525H94.217H95.8166L95.8852 39.005C95.9537 34.8232 95.9994 34.389 96.4336 33.7949C97.0963 32.8808 98.6959 32.1267 99.9985 32.1267H101.095V30.5271V28.9275L100.364 28.9503C99.9528 28.9732 99.3129 29.0417 98.9244 29.1332Z" fill="white"/>
<path d="M150.889 29.1559C147.324 29.7729 144.925 33.1778 145.267 37.2225C145.519 40.1247 146.89 42.0671 149.541 43.2782C151.94 44.3979 155.733 43.9181 157.721 42.2499L158.476 41.61L157.47 40.6274L156.465 39.6448L155.596 40.2161C154.568 40.9245 153.585 41.1302 151.94 40.9931C150.135 40.8331 148.878 39.7819 148.307 37.8852L148.147 37.3825H153.22H158.293L158.179 35.4858C158.087 34.069 157.927 33.3378 157.47 32.4466C156.168 29.8872 153.745 28.6761 150.889 29.1559ZM153.86 32.2181C154.431 32.5151 155.482 34.069 155.482 34.6175C155.482 34.8003 154.385 34.8688 151.94 34.8688C148.01 34.8688 147.987 34.846 148.924 33.4749C149.632 32.378 151.232 31.6011 152.374 31.7839C152.854 31.8524 153.517 32.0581 153.86 32.2181Z" fill="white"/>
<path d="M165.834 29.156C163.434 29.6359 161.446 31.3954 160.624 33.7491C160.144 35.0974 160.144 37.9767 160.624 39.4392C161.126 40.9702 162.703 42.6612 164.211 43.3468C166.656 44.4208 169.924 43.8952 172.049 42.1128L172.735 41.5187L171.615 40.3761L170.496 39.2335L169.719 39.8962C168.645 40.856 167.479 41.153 166.222 40.8103C164.211 40.2618 163.069 38.3195 163.32 35.8286C163.549 33.5663 164.965 32.1267 166.954 32.1267C168.325 32.1267 168.942 32.378 169.833 33.2464C170.221 33.6349 170.61 33.9548 170.724 33.9548C170.838 33.9548 171.364 33.5206 171.889 32.9722L172.849 31.9896L171.981 31.1212C170.473 29.5445 167.936 28.7446 165.834 29.156Z" fill="white"/>
<path d="M100.981 40.239C100.113 41.0845 100.181 42.4099 101.118 43.1868C102.055 43.9866 103.015 43.9638 103.86 43.1183C104.592 42.3642 104.706 41.5872 104.18 40.6046C103.815 39.8505 103.426 39.6677 102.329 39.6677C101.781 39.6677 101.347 39.8505 100.981 40.239Z" fill="white"/>
</svg>
